<?xml version="1.0" encoding="utf-8"?>
<!-- Generator: Adobe Illustrator 27.5.0, SVG Export Plug-In . SVG Version: 6.00 Build 0)  -->
<svg version="1.1" xmlns="http://www.w3.org/2000/svg" xmlns:xlink="http://www.w3.org/1999/xlink" x="0px" y="0px"
	 viewBox="0 0 750 500" style="enable-background:new 0 0 750 500;" xml:space="preserve">
<g id="OBJECTS">
	<g>
		<defs>
			<rect id="SVGID_1_" width="750" height="500"/>
		</defs>
		<clipPath id="SVGID_00000148646164605528679070000005817554900875689141_">
			<use xlink:href="#SVGID_1_"  style="overflow:visible;"/>
		</clipPath>
		<g style="clip-path:url(#SVGID_00000148646164605528679070000005817554900875689141_);">
			<g>
				<g>
					<path style="fill:#FE7DAD;" d="M198.163,67.556c-21.641,12.883-28.742,40.87-15.859,62.511
						c0.044,0.074,0.093,0.144,0.137,0.218L260.8,83.64c-0.044-0.074-0.082-0.151-0.126-0.225
						C247.791,61.774,219.804,54.674,198.163,67.556z"/>
				</g>
			</g>
			<g>
				
					<ellipse transform="matrix(0.5685 -0.8227 0.8227 0.5685 -190.1414 277.0958)" style="fill:#00A9F8;" cx="169.084" cy="319.809" rx="44.897" ry="44.897"/>
			</g>
			<g>
				<path style="fill:#67DAC1;" d="M170.334,318.469c-0.367,0-0.737-0.034-1.106-0.103l-96.769-18.16
					c-2.107-0.396-3.843-1.885-4.554-3.907c-0.711-2.022-0.289-4.271,1.106-5.897l64.111-74.724c1.396-1.626,3.549-2.386,5.66-1.99
					c2.107,0.396,3.843,1.885,4.554,3.907l32.658,92.885c0.711,2.023,0.289,4.271-1.106,5.898
					C173.737,317.718,172.067,318.469,170.334,318.469z M84.885,290.328l76.342,14.327l-25.764-73.277L84.885,290.328z"/>
			</g>
			<g>
				
					<ellipse transform="matrix(0.9865 -0.1638 0.1638 0.9865 9.6704 88.1305)" style="fill:#00A9F8;" cx="539.138" cy="-14.563" rx="44.897" ry="44.897"/>
			</g>
			<g>
				<path style="fill:#67DAC1;" d="M564.606,67.732c-1.089,0-2.176-0.296-3.137-0.885c-1.827-1.121-2.918-3.131-2.861-5.274
					l2.61-98.424c0.057-2.143,1.253-4.092,3.137-5.115c1.884-1.021,4.17-0.96,5.998,0.159l83.933,51.472
					c1.827,1.121,2.918,3.131,2.861,5.274c-0.057,2.143-1.253,4.092-3.137,5.115l-86.543,46.952
					C566.574,67.491,565.589,67.732,564.606,67.732z M572.939-26.144l-2.06,77.646l68.273-37.041L572.939-26.144z"/>
			</g>
			<g>
				<g>
					<path style="fill:#232021;" d="M234.825,183.586c-1.997,0.547-4.221,0.045-5.802-1.512c-2.36-2.325-2.389-6.124-0.063-8.485
						l12.927-13.122c2.325-2.361,6.123-2.389,8.485-0.063c2.36,2.325,2.389,6.124,0.063,8.485l-12.927,13.122
						C236.74,182.79,235.81,183.316,234.825,183.586z"/>
				</g>
			</g>
			<g>
				<g>
					<path style="fill:#232021;" d="M705.702,444.615c-1.997,0.547-4.221,0.045-5.802-1.512c-2.36-2.325-2.389-6.124-0.063-8.485
						l12.927-13.122c2.325-2.361,6.123-2.389,8.485-0.063c2.36,2.325,2.389,6.124,0.063,8.485l-12.927,13.122
						C707.617,443.82,706.688,444.345,705.702,444.615z"/>
				</g>
			</g>
			<g>
				<g>
					<path style="fill:#FFB32C;" d="M113.566,203.529c-1.113,0.305-2.327,0.293-3.502-0.105l-17.449-5.902
						c-3.139-1.061-4.823-4.467-3.761-7.606c1.062-3.138,4.467-4.823,7.606-3.761l17.449,5.902c3.139,1.061,4.823,4.467,3.761,7.606
						C117.005,201.626,115.425,203.02,113.566,203.529z"/>
				</g>
			</g>
			<g>
				<g>
					<path style="fill:#67DAC1;" d="M39.863,29.509c-1.113,0.305-2.327,0.293-3.502-0.105l-17.449-5.902
						c-3.139-1.061-4.823-4.467-3.761-7.606c1.062-3.138,4.467-4.823,7.606-3.761l17.449,5.902c3.139,1.061,4.823,4.467,3.761,7.606
						C43.303,27.606,41.722,29,39.863,29.509z"/>
				</g>
			</g>
			<g>
				<g>
					<path style="fill:#FFB32C;" d="M717.189,499.496c-1.113,0.305-2.327,0.293-3.502-0.105l-17.449-5.902
						c-3.139-1.061-4.823-4.467-3.761-7.606c1.062-3.138,4.467-4.823,7.606-3.761l17.449,5.902c3.139,1.061,4.823,4.467,3.761,7.606
						C720.629,497.592,719.049,498.986,717.189,499.496z"/>
				</g>
			</g>
			<g>
				<g>
					<path style="fill:#67DAC1;" d="M352.722,246.181c-1.119-0.282-2.17-0.889-2.998-1.813l-12.295-13.716
						c-2.212-2.467-2.005-6.261,0.463-8.473c2.467-2.211,6.261-2.004,8.472,0.463l12.295,13.716
						c2.212,2.467,2.005,6.261-0.462,8.473C356.653,246.214,354.592,246.651,352.722,246.181z"/>
				</g>
			</g>
			<g>
				<g>
					<path style="fill:#67DAC1;" d="M737.613,254.37c-1.119-0.281-2.17-0.889-2.998-1.813l-12.295-13.716
						c-2.212-2.467-2.005-6.261,0.463-8.473c2.467-2.211,6.261-2.005,8.472,0.463l12.295,13.716
						c2.212,2.467,2.005,6.261-0.462,8.473C741.544,254.403,739.483,254.84,737.613,254.37z"/>
				</g>
			</g>
			<g>
				<g>
					<path style="fill:#67DAC1;" d="M543.83,114.769c-1.119-0.282-2.17-0.889-2.998-1.813L528.536,99.24
						c-2.212-2.467-2.005-6.261,0.463-8.473c2.467-2.211,6.261-2.005,8.472,0.463l12.295,13.716
						c2.212,2.467,2.005,6.261-0.463,8.473C547.761,114.802,545.699,115.239,543.83,114.769z"/>
				</g>
			</g>
			<g>
				<g>
					<path style="fill:#FE7DAD;" d="M105.619,338.726c-0.155,1.144-0.64,2.256-1.466,3.182L91.898,355.66
						c-2.204,2.474-5.997,2.693-8.471,0.488c-2.473-2.205-2.692-5.998-0.487-8.471l12.255-13.752
						c2.204-2.474,5.997-2.692,8.471-0.488C105.212,334.816,105.877,336.816,105.619,338.726z"/>
				</g>
			</g>
			<g>
				<path style="fill:#00A9F8;" d="M169.263,176.032c-21.403,0-41.073-14.232-46.995-35.848c-3.438-12.549-1.782-25.686,4.66-36.99
					c6.442-11.305,16.901-19.423,29.451-22.861c25.898-7.098,52.754,8.205,59.851,34.111c3.438,12.549,1.782,25.686-4.66,36.99
					c-6.442,11.305-16.901,19.423-29.451,22.861C177.83,175.471,173.511,176.032,169.263,176.032z M169.307,90.586
					c-3.256,0-6.532,0.437-9.758,1.32c-9.457,2.591-17.34,8.71-22.195,17.229c-4.855,8.52-6.103,18.42-3.512,27.878
					c2.591,9.458,8.709,17.341,17.229,22.196c8.52,4.854,18.418,6.102,27.878,3.512c9.457-2.591,17.34-8.71,22.195-17.229
					c4.855-8.52,6.102-18.42,3.512-27.878c-2.591-9.458-8.709-17.341-17.23-22.196C181.813,92.219,175.599,90.586,169.307,90.586z"
					/>
			</g>
			<g>
				<g>
					<path style="fill:#FE7DAD;" d="M228.744,244.005c-5.249,1.438-9.52-0.19-12.503-1.326c-3.006-1.146-4.145-1.496-6.02-0.599
						c-2.995,1.43-6.572,0.164-8.001-2.826c-1.429-2.989-0.164-6.572,2.825-8.001c6.613-3.161,11.943-1.131,15.468,0.212
						c3.007,1.146,4.145,1.497,6.022,0.599c1.879-0.898,2.32-2.003,3.317-5.063c1.17-3.588,2.936-9.01,9.552-12.173
						c6.611-3.161,11.944-1.133,15.472,0.21c3.008,1.147,4.148,1.496,6.024,0.598c1.881-0.899,2.322-2.004,3.32-5.065
						c1.17-3.588,2.937-9.009,9.553-12.172c6.611-3.162,11.945-1.134,15.472,0.21c3.008,1.145,4.143,1.497,6.026,0.597
						c2.987-1.429,6.571-0.164,8.001,2.826c1.429,2.989,0.164,6.572-2.825,8.001c-6.615,3.159-11.945,1.133-15.471-0.209
						c-3.008-1.146-4.144-1.499-6.027-0.597c-1.88,0.899-2.321,2.003-3.319,5.064c-1.17,3.588-2.938,9.01-9.554,12.173
						c-6.613,3.159-11.945,1.133-15.472-0.21c-3.008-1.146-4.147-1.495-6.024-0.598c-1.879,0.898-2.32,2.002-3.317,5.063
						c-1.17,3.588-2.936,9.01-9.552,12.173C230.691,243.379,229.701,243.743,228.744,244.005z"/>
				</g>
			</g>
			<g>
				<g>
					<path style="fill:#67DAC1;" d="M703.696,56.209c-5.249,1.438-9.52-0.19-12.503-1.326c-3.006-1.146-4.145-1.496-6.02-0.599
						c-2.995,1.43-6.572,0.164-8.001-2.826c-1.429-2.989-0.164-6.572,2.825-8.001c6.613-3.161,11.943-1.131,15.468,0.212
						c3.007,1.146,4.144,1.497,6.022,0.599c1.879-0.898,2.32-2.002,3.317-5.063c1.17-3.588,2.936-9.01,9.552-12.173
						c6.611-3.161,11.944-1.134,15.471,0.21c3.009,1.147,4.148,1.496,6.024,0.598c1.881-0.899,2.322-2.003,3.32-5.065
						c1.17-3.587,2.937-9.009,9.553-12.172c6.611-3.162,11.945-1.134,15.472,0.21c3.008,1.145,4.143,1.498,6.026,0.597
						c2.987-1.429,6.571-0.164,8.001,2.826c1.429,2.989,0.164,6.572-2.825,8.001c-6.615,3.159-11.945,1.133-15.471-0.209
						c-3.008-1.146-4.144-1.499-6.027-0.597c-1.88,0.899-2.321,2.003-3.319,5.064c-1.17,3.588-2.938,9.01-9.554,12.173
						c-6.613,3.159-11.945,1.133-15.471-0.21c-3.008-1.146-4.147-1.495-6.024-0.597c-1.879,0.898-2.32,2.002-3.317,5.063
						c-1.17,3.588-2.936,9.01-9.552,12.173C705.642,55.583,704.653,55.947,703.696,56.209z"/>
				</g>
			</g>
			<g>
				<g>
					<path style="fill:#FE7DAD;" d="M74.801,522.074c-3.854,3.843-8.372,4.537-11.526,5.023c-3.18,0.488-4.343,0.747-5.53,2.453
						c-1.898,2.723-5.633,3.389-8.352,1.495c-2.72-1.893-3.389-5.633-1.496-8.352c4.188-6.015,9.826-6.883,13.554-7.456
						c3.181-0.489,4.343-0.745,5.531-2.454c1.19-1.709,1.028-2.887,0.383-6.041c-0.755-3.698-1.898-9.284,2.292-15.302
						c4.186-6.014,9.825-6.886,13.556-7.46c3.182-0.489,4.346-0.748,5.533-2.456c1.191-1.711,1.029-2.889,0.384-6.044
						c-0.755-3.697-1.896-9.284,2.294-15.302c4.186-6.015,9.826-6.886,13.556-7.461c3.181-0.49,4.342-0.745,5.535-2.458
						c1.892-2.718,5.632-3.388,8.352-1.495c2.719,1.893,3.389,5.633,1.496,8.352c-4.191,6.014-9.827,6.886-13.555,7.46
						c-3.182,0.49-4.344,0.743-5.536,2.458c-1.191,1.71-1.028,2.888-0.384,6.043c0.755,3.697,1.896,9.285-2.294,15.304
						c-4.19,6.013-9.826,6.886-13.556,7.46c-3.182,0.489-4.344,0.749-5.533,2.456c-1.19,1.709-1.028,2.887-0.383,6.041
						c0.755,3.697,1.898,9.284-2.292,15.302C76.184,520.568,75.503,521.374,74.801,522.074z"/>
				</g>
			</g>
			<g>
				<path style="fill:#FFB32C;" d="M329.348,336.442c-0.188,0-0.375-0.009-0.563-0.026l-63.56-5.99
					c-1.585-0.149-3.045-0.922-4.06-2.148c-1.015-1.227-1.501-2.805-1.352-4.39l5.99-63.56c0.311-3.299,3.248-5.708,6.536-5.41
					l63.56,5.989c3.3,0.311,5.722,3.237,5.411,6.536l-5.989,63.561c-0.149,1.585-0.922,3.045-2.147,4.06
					C332.093,335.959,330.739,336.442,329.348,336.442z M272.324,319.042l51.613,4.864l4.864-51.613l-51.613-4.864L272.324,319.042z
					"/>
			</g>
			<g>
				<path style="fill:#FE7DAD;" d="M95.746,145.675c2.848,1.623,3.841,5.248,2.218,8.096c-1.623,2.848-5.248,3.841-8.096,2.218
					c-2.848-1.623-3.841-5.248-2.218-8.096C89.274,145.045,92.898,144.052,95.746,145.675z"/>
			</g>
			<g>
				<path style="fill:#67DAC1;" d="M239.939,301.813c2.848,1.623,3.841,5.248,2.218,8.096c-1.623,2.848-5.248,3.841-8.096,2.218
					c-2.848-1.623-3.841-5.248-2.218-8.096C233.467,301.182,237.091,300.19,239.939,301.813z"/>
			</g>
			<g>
				<path style="fill:#232021;" d="M63.062,237.648c2.848,1.623,3.841,5.248,2.218,8.096c-1.623,2.848-5.248,3.841-8.096,2.218
					c-2.848-1.623-3.841-5.248-2.218-8.096C56.589,237.018,60.214,236.025,63.062,237.648z"/>
			</g>
			<g>
				<path style="fill:#00A9F8;" d="M182.553,201.115c2.848,1.623,3.841,5.248,2.218,8.096c-1.623,2.848-5.248,3.841-8.096,2.218
					c-2.848-1.623-3.841-5.248-2.218-8.096C176.08,200.484,179.705,199.492,182.553,201.115z"/>
			</g>
			<g>
				<path style="fill:#00A9F8;" d="M724.518,365.387c2.848,1.623,3.841,5.248,2.218,8.096c-1.623,2.848-5.248,3.841-8.096,2.218
					c-2.848-1.623-3.841-5.248-2.218-8.096C718.046,364.757,721.671,363.764,724.518,365.387z"/>
			</g>
			<g>
				<path style="fill:#FFB32C;" d="M263.465,114.523c2.848,1.623,3.841,5.248,2.218,8.096c-1.623,2.848-5.248,3.841-8.096,2.218
					c-2.848-1.623-3.841-5.248-2.218-8.096C256.993,113.893,260.617,112.9,263.465,114.523z"/>
			</g>
			<g>
				<g>
					<path style="fill:#FE7DAD;" d="M723.33,127.106c-18.4-17.197-47.257-16.221-64.454,2.179c-0.059,0.063-0.113,0.129-0.171,0.193
						l66.624,62.266c0.059-0.063,0.122-0.121,0.181-0.184C742.706,173.16,741.73,144.303,723.33,127.106z"/>
				</g>
			</g>
			<g>
				
					<ellipse transform="matrix(0.071 -0.9975 0.9975 0.071 257.1528 327.7379)" style="fill:#67DAC1;" cx="304.525" cy="25.814" rx="44.897" ry="44.897"/>
			</g>
			<g>
				<path style="fill:#232021;" d="M311.922,30.97c-0.843,0-1.689-0.178-2.483-0.539c-1.951-0.887-3.28-2.749-3.487-4.882
					l-9.511-97.998c-0.207-2.134,0.739-4.215,2.483-5.462c1.742-1.247,4.018-1.469,5.973-0.58l89.625,40.762
					c1.951,0.887,3.28,2.748,3.487,4.882c0.207,2.134-0.739,4.215-2.483,5.461l-80.114,57.236
					C314.376,30.592,313.154,30.97,311.922,30.97z M309.388-63.264l7.503,77.311l63.202-45.153L309.388-63.264z"/>
			</g>
			<g>
				<g>
					<path style="fill:#232021;" d="M453.669,51.014c-1.081-1.765-1.219-4.042-0.164-5.993c1.576-2.915,5.216-4,8.132-2.424
						l16.203,8.761c2.915,1.575,4,5.216,2.424,8.131c-1.576,2.915-5.216,4.001-8.132,2.424l-16.203-8.761
						C454.966,52.631,454.202,51.885,453.669,51.014z"/>
				</g>
			</g>
			<g>
				<g>
					<path style="fill:#232021;" d="M42.591,151.252c2.054-0.26,4.185,0.551,5.531,2.316c2.009,2.635,1.501,6.4-1.134,8.409
						l-14.649,11.167c-2.635,2.009-6.399,1.501-8.409-1.135c-2.009-2.635-1.501-6.4,1.134-8.409l14.649-11.167
						C40.583,151.769,41.577,151.38,42.591,151.252z"/>
				</g>
			</g>
			<g>
				<g>
					<path style="fill:#FFB32C;" d="M552.633,169.447c-0.603-0.984-0.929-2.153-0.874-3.393l0.809-18.402
						c0.145-3.31,2.947-5.877,6.257-5.731c3.31,0.146,5.876,2.947,5.73,6.257l-0.809,18.402c-0.145,3.31-2.947,5.877-6.258,5.731
						C555.419,172.221,553.64,171.091,552.633,169.447z"/>
				</g>
			</g>
			<g>
				<g>
					<path style="fill:#00A9F8;" d="M415.278,207.743c0.424-1.074,1.161-2.037,2.185-2.739l15.189-10.421
						c2.732-1.875,6.467-1.18,8.342,1.553c1.874,2.732,1.179,6.467-1.553,8.341l-15.189,10.421c-2.732,1.875-6.467,1.18-8.342-1.553
						C414.737,211.637,414.57,209.536,415.278,207.743z"/>
				</g>
			</g>
			<g>
				<g>
					<path style="fill:#00A9F8;" d="M11.559,296.52c1.12-0.279,2.333-0.238,3.498,0.188l17.305,6.312
						c3.113,1.135,4.717,4.579,3.581,7.693c-1.136,3.112-4.58,4.716-7.692,3.58l-17.305-6.311c-3.113-1.135-4.717-4.579-3.581-7.693
						C8.075,298.342,9.688,296.986,11.559,296.52z"/>
				</g>
			</g>
			<g>
				<g>
					<path style="fill:#FE7DAD;" d="M685.253,363.392c-1.142,0.17-2.345,0.013-3.464-0.522l-16.621-7.94
						c-2.99-1.428-4.256-5.01-2.828-8c1.429-2.989,5.011-4.256,8-2.827l16.621,7.94c2.99,1.428,4.256,5.01,2.828,8
						C688.895,361.912,687.16,363.108,685.253,363.392z"/>
				</g>
			</g>
			<g>
				<path style="fill:#00A9F8;" d="M657.973,164.71c-3.818,0-7.663-0.452-11.469-1.366c-12.651-3.039-23.362-10.823-30.159-21.918
					c-6.797-11.095-8.866-24.173-5.827-36.825c3.04-12.651,10.824-23.362,21.92-30.159c11.094-6.798,24.172-8.868,36.823-5.827
					c12.652,3.04,23.362,10.824,30.159,21.919c14.03,22.903,6.813,52.952-16.091,66.983h-0.001
					C675.572,162.27,666.845,164.71,657.973,164.71z M657.815,79.254c-6.687,0-13.263,1.839-19.108,5.421
					c-8.362,5.123-14.229,13.195-16.52,22.729c-2.291,9.535-0.731,19.391,4.391,27.753s13.194,14.229,22.729,16.519
					c9.534,2.29,19.391,0.731,27.753-4.392c17.262-10.575,22.702-33.221,12.128-50.482c-5.122-8.362-13.194-14.228-22.729-16.519
					C663.59,79.594,660.692,79.254,657.815,79.254z"/>
			</g>
			<g>
				<path style="fill:#FE7DAD;" d="M23.339,467.741c-3.818,0-7.662-0.452-11.469-1.366c-12.652-3.04-23.362-10.824-30.159-21.92
					c-14.031-22.903-6.813-52.951,16.091-66.982c22.905-14.033,52.953-6.811,66.984,16.091
					c14.031,22.905,6.812,52.954-16.093,66.984C40.938,465.3,32.21,467.741,23.339,467.741z M23.189,382.307
					c-6.536,0-13.148,1.741-19.118,5.398c-17.261,10.574-22.701,33.221-12.127,50.481c5.122,8.362,13.194,14.229,22.729,16.52
					c9.534,2.293,19.392,0.732,27.752-4.391c0.001,0,0.001,0,0.001,0c8.361-5.123,14.229-13.194,16.519-22.729
					c2.291-9.535,0.731-19.392-4.391-27.754C47.636,388.541,35.551,382.307,23.189,382.307z"/>
			</g>
			<g>
				<g>
					<path style="fill:#FE7DAD;" d="M393.946,62.001c-2.843-4.641-2.469-9.197-2.208-12.377c0.264-3.207,0.282-4.397-1.101-5.948
						c-2.207-2.479-1.988-6.267,0.486-8.471c2.473-2.205,6.266-1.988,8.471,0.485c4.878,5.471,4.412,11.156,4.104,14.915
						c-0.263,3.208-0.284,4.397,1.102,5.95c1.386,1.555,2.569,1.67,5.787,1.776c3.772,0.124,9.471,0.31,14.351,5.784
						c4.877,5.469,4.415,11.156,4.107,14.918c-0.263,3.209-0.282,4.401,1.104,5.952c1.387,1.556,2.571,1.672,5.789,1.778
						c3.771,0.124,9.47,0.312,14.351,5.785c4.879,5.469,4.416,11.157,4.108,14.918c-0.262,3.208-0.284,4.397,1.105,5.954
						c2.204,2.471,1.988,6.265-0.486,8.471c-2.473,2.205-6.266,1.988-8.471-0.485c-4.876-5.474-4.415-11.157-4.108-14.917
						c0.263-3.208,0.286-4.398-1.105-5.955c-1.387-1.555-2.57-1.671-5.788-1.777c-3.772-0.124-9.472-0.312-14.352-5.786
						c-4.876-5.472-4.415-11.157-4.107-14.918c0.263-3.209,0.281-4.399-1.104-5.952c-1.386-1.555-2.569-1.67-5.787-1.776
						c-3.772-0.124-9.471-0.31-14.351-5.784C395.09,63.696,394.464,62.847,393.946,62.001z"/>
				</g>
			</g>
			<g>
				<g>
					<path style="fill:#00A9F8;" d="M382.581,450.899c-2.843-4.641-2.469-9.197-2.208-12.377c0.264-3.207,0.282-4.397-1.101-5.948
						c-2.207-2.479-1.988-6.267,0.486-8.471c2.473-2.206,6.266-1.988,8.471,0.485c4.878,5.471,4.412,11.156,4.104,14.915
						c-0.263,3.208-0.284,4.398,1.102,5.95c1.386,1.555,2.569,1.671,5.787,1.776c3.772,0.124,9.471,0.31,14.351,5.784
						c4.877,5.469,4.415,11.156,4.107,14.918c-0.263,3.209-0.282,4.401,1.104,5.952c1.387,1.556,2.571,1.672,5.789,1.777
						c3.771,0.125,9.47,0.312,14.351,5.785c4.879,5.469,4.416,11.157,4.108,14.918c-0.262,3.208-0.284,4.397,1.105,5.954
						c2.204,2.471,1.988,6.266-0.486,8.471c-2.473,2.205-6.266,1.988-8.471-0.485c-4.876-5.474-4.415-11.157-4.108-14.917
						c0.263-3.208,0.286-4.398-1.105-5.955c-1.387-1.555-2.57-1.671-5.788-1.777c-3.772-0.124-9.472-0.312-14.352-5.785
						c-4.876-5.472-4.416-11.157-4.107-14.918c0.263-3.209,0.281-4.399-1.104-5.952c-1.386-1.555-2.569-1.671-5.787-1.776
						c-3.772-0.124-9.471-0.31-14.351-5.784C383.724,452.594,383.099,451.745,382.581,450.899z"/>
				</g>
			</g>
			<g>
				<path style="fill:#FFB32C;" d="M338.943,188.699c-2.823,0-5.339-2.002-5.887-4.878l-11.95-62.713
					c-0.621-3.255,1.516-6.396,4.771-7.017l62.713-11.95c1.563-0.297,3.181,0.038,4.496,0.932c1.316,0.895,2.223,2.275,2.52,3.839
					l11.95,62.713c0.298,1.563-0.037,3.181-0.932,4.497c-0.895,1.316-2.275,2.223-3.839,2.521l-62.713,11.95
					C339.694,188.664,339.315,188.699,338.943,188.699z M334.016,124.756l9.704,50.925l50.926-9.704l-9.704-50.925L334.016,124.756z
					"/>
			</g>
			<g>
				<path style="fill:#FE7DAD;" d="M603.234,136.22c-0.766,3.187-3.97,5.151-7.158,4.385c-3.187-0.766-5.151-3.97-4.385-7.158
					c0.766-3.187,3.97-5.15,7.158-4.385C602.037,129.828,604,133.033,603.234,136.22z"/>
			</g>
			<g>
				<path style="fill:#67DAC1;" d="M341.544,88.854c-0.766,3.187-3.97,5.15-7.158,4.385c-3.187-0.766-5.151-3.97-4.385-7.158
					c0.766-3.187,3.97-5.151,7.158-4.385C340.346,82.462,342.31,85.666,341.544,88.854z"/>
			</g>
			<g>
				<path style="fill:#232021;" d="M505.797,130.445c-0.766,3.187-3.97,5.15-7.158,4.385c-3.187-0.766-5.151-3.97-4.385-7.158
					c0.766-3.187,3.97-5.15,7.158-4.385C504.6,124.053,506.563,127.257,505.797,130.445z"/>
			</g>
			<g>
				<path style="fill:#232021;" d="M221.192,30.515c-0.766,3.187-3.97,5.151-7.158,4.385c-3.187-0.766-5.15-3.97-4.385-7.158
					s3.97-5.15,7.158-4.385C219.994,24.124,221.958,27.328,221.192,30.515z"/>
			</g>
			<g>
				
					<ellipse transform="matrix(0.9639 -0.2664 0.2664 0.9639 13.9027 111.1059)" style="fill:#00A9F8;" cx="416.503" cy="4.306" rx="5.935" ry="5.935"/>
			</g>
			<g>
				<path style="fill:#FFB32C;" d="M527.975,59.285c-0.766,3.187-3.97,5.151-7.158,4.385c-3.187-0.766-5.151-3.97-4.385-7.158
					c0.766-3.187,3.97-5.151,7.158-4.385C526.778,52.893,528.741,56.098,527.975,59.285z"/>
			</g>
			<g>
				<path style="fill:#FFB32C;" d="M86.088,47.927c-0.766,3.187-3.97,5.151-7.158,4.385c-3.187-0.766-5.151-3.97-4.385-7.158
					c0.766-3.187,3.97-5.15,7.158-4.385C84.89,41.535,86.853,44.74,86.088,47.927z"/>
			</g>
			<g>
				<g>
					<path style="fill:#67DAC1;" d="M626.206,478.602c-25.185-0.055-45.557-20.516-45.503-45.701c0-0.087,0.006-0.171,0.007-0.258
						l91.191,0.199c0,0.086,0.006,0.171,0.006,0.258C671.852,458.285,651.391,478.657,626.206,478.602z"/>
				</g>
			</g>
			<g>
				<g>
					<path style="fill:#67DAC1;" d="M36.378,112.675C14.102,100.925,5.569,73.341,17.32,51.065c0.04-0.077,0.085-0.149,0.126-0.225
						l80.657,42.547c-0.04,0.076-0.074,0.154-0.114,0.231C86.238,115.894,58.654,124.426,36.378,112.675z"/>
				</g>
			</g>
			<g>
				<g>
					<path style="fill:#00A9F8;" d="M295.903,416.261c-19.482-15.96-22.338-44.693-6.377-64.175
						c0.055-0.067,0.113-0.129,0.168-0.195l70.542,57.79c-0.054,0.067-0.104,0.137-0.158,0.203
						C344.118,429.367,315.386,432.222,295.903,416.261z"/>
				</g>
			</g>
			<g>
				<g>
					<path style="fill:#FFB32C;" d="M754.684,333.3c-23.929,7.856-49.695-5.173-57.551-29.102c-0.027-0.082-0.048-0.165-0.074-0.247
						l86.641-28.445c0.027,0.082,0.06,0.161,0.086,0.243C791.642,299.677,778.613,325.444,754.684,333.3z"/>
				</g>
			</g>
			<g>
				
					<ellipse transform="matrix(0.972 -0.2348 0.2348 0.972 -51.6853 118.7095)" style="fill:#FFB32C;" cx="472.629" cy="276.386" rx="44.897" ry="44.897"/>
			</g>
			<g>
				
					<ellipse transform="matrix(0.1094 -0.994 0.994 0.1094 -316.144 637.132)" style="fill:#FFB32C;" cx="197.493" cy="494.997" rx="44.897" ry="44.897"/>
			</g>
			<g>
				<path style="fill:#FE7DAD;" d="M496.683,384.625c-0.646,0-1.296-0.104-1.926-0.317l-93.243-31.618
					c-2.03-0.689-3.539-2.408-3.958-4.51c-0.418-2.103,0.316-4.269,1.928-5.683l74.004-64.942c1.61-1.413,3.854-1.86,5.885-1.173
					c2.03,0.689,3.539,2.408,3.958,4.511l19.238,96.559c0.418,2.103-0.316,4.269-1.928,5.683
					C499.531,384.109,498.118,384.625,496.683,384.625z M415.209,344.662l73.56,24.943l-15.177-76.177L415.209,344.662z"/>
			</g>
			<g>
				<g>
					<path style="fill:#67DAC1;" d="M598.616,360.087c-1.997,0.547-3.655,2.112-4.221,4.258c-0.846,3.203,1.065,6.487,4.27,7.333
						l17.81,4.702c3.204,0.846,6.486-1.065,7.333-4.27c0.846-3.203-1.065-6.487-4.27-7.333l-17.81-4.702
						C600.669,359.796,599.602,359.817,598.616,360.087z"/>
				</g>
			</g>
			<g>
				<g>
					<path style="fill:#FFB32C;" d="M484.122,404.727c-1.113,0.305-2.151,0.934-2.959,1.875l-12.005,13.97
						c-2.16,2.513-1.873,6.301,0.64,8.461c2.513,2.159,6.302,1.873,8.461-0.64l12.005-13.97c2.16-2.513,1.873-6.301-0.64-8.461
						C488.052,404.611,485.981,404.217,484.122,404.727z"/>
				</g>
			</g>
			<g>
				<g>
					<path style="fill:#67DAC1;" d="M668.153,246.146c-0.82,0.813-1.414,1.871-1.655,3.088l-3.589,18.067
						c-0.646,3.25,1.466,6.409,4.716,7.054c3.25,0.645,6.409-1.466,7.053-4.716l3.589-18.067c0.646-3.25-1.466-6.409-4.716-7.054
						C671.518,244.114,669.522,244.789,668.153,246.146z"/>
				</g>
			</g>
			<g>
				<g>
					<path style="fill:#FE7DAD;" d="M397.449,299.077c-0.716-0.905-1.701-1.615-2.883-1.99l-17.552-5.586
						c-3.157-1.005-6.532,0.74-7.537,3.898c-1.004,3.157,0.74,6.532,3.898,7.536l17.552,5.586c3.157,1.005,6.532-0.74,7.537-3.898
						C399.092,302.648,398.645,300.589,397.449,299.077z"/>
				</g>
			</g>
			<g>
				<g>
					<path style="fill:#FE7DAD;" d="M505.614,204.451c0.234-1.13,0.145-2.34-0.327-3.488l-6.993-17.041
						c-1.258-3.066-4.763-4.531-7.829-3.273c-3.065,1.258-4.531,4.763-3.273,7.828l6.993,17.041
						c1.258,3.066,4.763,4.531,7.829,3.273C503.932,208.004,505.223,206.338,505.614,204.451z"/>
				</g>
			</g>
			<g>
				<path style="fill:#FFB32C;" d="M570.797,490.655c-8.35,0-16.594-2.166-24.044-6.412c-11.305-6.442-19.423-16.901-22.861-29.451
					c-3.438-12.549-1.782-25.686,4.66-36.99c6.443-11.305,16.902-19.423,29.452-22.861c12.548-3.438,25.685-1.783,36.989,4.661
					c11.305,6.442,19.423,16.901,22.861,29.451c3.438,12.549,1.782,25.686-4.66,36.989c-6.442,11.305-16.901,19.423-29.451,22.861
					C579.465,490.075,575.117,490.655,570.797,490.655z M570.931,405.193c-3.256,0-6.531,0.438-9.757,1.321
					c-9.457,2.591-17.34,8.709-22.196,17.23c-4.855,8.52-6.103,18.42-3.512,27.878c2.591,9.457,8.709,17.34,17.23,22.195
					c8.519,4.855,18.418,6.102,27.878,3.512c9.457-2.591,17.34-8.709,22.195-17.229c4.855-8.52,6.102-18.42,3.512-27.878
					c-2.591-9.457-8.709-17.341-17.229-22.196C583.438,406.827,577.223,405.193,570.931,405.193z"/>
			</g>
			<g>
				<g>
					<path style="fill:#232021;" d="M562.592,311.202c-5.249,1.438-8.094,5.016-10.081,7.513c-2.002,2.518-2.804,3.399-4.874,3.583
						c-3.306,0.297-5.738,3.209-5.443,6.509c0.293,3.3,3.208,5.738,6.508,5.444c7.3-0.65,10.852-5.114,13.2-8.066
						c2.003-2.519,2.803-3.4,4.876-3.584c2.075-0.185,3.017,0.541,5.434,2.666c2.835,2.491,7.118,6.256,14.422,5.605
						c7.299-0.649,10.854-5.112,13.204-8.066c2.004-2.52,2.807-3.401,4.879-3.584c2.077-0.185,3.019,0.54,5.438,2.666
						c2.835,2.49,7.118,6.254,14.423,5.604c7.3-0.648,10.855-5.112,13.206-8.066c2.004-2.518,2.802-3.4,4.881-3.585
						c3.299-0.293,5.737-3.208,5.443-6.509c-0.294-3.3-3.208-5.738-6.508-5.444c-7.302,0.654-10.855,5.113-13.205,8.065
						c-2.004,2.519-2.801,3.402-4.881,3.586c-2.076,0.185-3.018-0.541-5.436-2.666c-2.835-2.491-7.12-6.255-14.424-5.604
						c-7.3,0.652-10.855,5.113-13.204,8.066c-2.004,2.519-2.806,3.399-4.879,3.584c-2.075,0.185-3.017-0.541-5.435-2.666
						c-2.835-2.491-7.118-6.256-14.422-5.605C564.586,310.749,563.549,310.94,562.592,311.202z"/>
				</g>
			</g>
			<g>
				<g>
					<path style="fill:#67DAC1;" d="M147.531,389.405c-5.249,1.438-8.094,5.016-10.081,7.513c-2.003,2.518-2.804,3.399-4.874,3.583
						c-3.306,0.297-5.738,3.209-5.444,6.509c0.294,3.301,3.208,5.738,6.508,5.444c7.301-0.65,10.852-5.114,13.2-8.066
						c2.003-2.519,2.803-3.4,4.876-3.584c2.075-0.185,3.017,0.54,5.434,2.666c2.835,2.491,7.118,6.256,14.422,5.605
						c7.299-0.649,10.854-5.112,13.204-8.066c2.004-2.52,2.807-3.401,4.879-3.584c2.077-0.185,3.019,0.54,5.438,2.666
						c2.835,2.49,7.118,6.254,14.423,5.604c7.3-0.648,10.855-5.112,13.205-8.066c2.005-2.518,2.802-3.4,4.881-3.585
						c3.299-0.293,5.737-3.208,5.443-6.509c-0.294-3.3-3.208-5.738-6.508-5.444c-7.302,0.654-10.855,5.113-13.205,8.065
						c-2.004,2.519-2.801,3.402-4.881,3.586c-2.076,0.185-3.018-0.541-5.436-2.666c-2.835-2.491-7.119-6.255-14.424-5.605
						c-7.3,0.653-10.855,5.113-13.204,8.066c-2.004,2.519-2.806,3.399-4.879,3.584c-2.075,0.185-3.017-0.54-5.435-2.666
						c-2.835-2.491-7.118-6.256-14.422-5.605C149.525,388.952,148.488,389.143,147.531,389.405z"/>
				</g>
			</g>
			<g>
				<path style="fill:#67DAC1;" d="M591.011,280.741c-0.312,0-0.625-0.024-0.937-0.073c-1.571-0.249-2.98-1.111-3.916-2.398
					l-37.546-51.634c-0.936-1.287-1.322-2.893-1.074-4.465c0.249-1.572,1.111-2.981,2.398-3.917l51.634-37.545
					c2.677-1.949,6.433-1.356,8.381,1.324l37.546,51.634c1.949,2.68,1.357,6.433-1.324,8.381l-51.634,37.546
					C593.508,280.344,592.271,280.741,591.011,280.741z M561.846,224.431l30.489,41.928l41.929-30.488l-30.489-41.928
					L561.846,224.431z"/>
			</g>
			<g>
				<path style="fill:#67DAC1;" d="M133.087,54.409c-1.855,0-3.684-0.857-4.858-2.472L90.684,0.303
					c-1.949-2.68-1.356-6.433,1.324-8.381l51.634-37.546c2.678-1.949,6.433-1.357,8.381,1.324l37.546,51.634
					c1.949,2.68,1.357,6.433-1.324,8.381l-51.634,37.546C135.546,54.036,134.311,54.409,133.087,54.409z M103.917-1.901
					l30.489,41.928l41.929-30.489L145.846-32.39L103.917-1.901z"/>
			</g>
			<g>
				<path style="fill:#232021;" d="M265.198,525.403c-1.075,0-2.14-0.289-3.077-0.85l-54.804-32.746
					c-2.845-1.699-3.773-5.383-2.073-8.227l32.745-54.804c0.816-1.366,2.142-2.353,3.685-2.741c1.544-0.387,3.179-0.147,4.543,0.668
					l54.804,32.746c2.845,1.699,3.773,5.383,2.073,8.228l-32.745,54.804c-0.816,1.366-2.142,2.352-3.685,2.741
					C266.18,525.343,265.688,525.403,265.198,525.403z M218.622,484.584l44.502,26.591l26.59-44.502l-44.502-26.591L218.622,484.584
					z"/>
			</g>
			<g>
				<path style="fill:#FE7DAD;" d="M498.275,463.585c1.623-2.848,0.63-6.472-2.218-8.096c-2.848-1.623-6.473-0.63-8.096,2.218
					c-1.623,2.848-0.63,6.473,2.218,8.096C493.028,467.426,496.652,466.433,498.275,463.585z"/>
			</g>
			<g>
				<path style="fill:#FE7DAD;" d="M361.995,359.585c1.623-2.848,0.63-6.472-2.218-8.096c-2.848-1.623-6.472-0.63-8.096,2.218
					c-1.623,2.848-0.63,6.473,2.218,8.096C356.747,363.426,360.372,362.433,361.995,359.585z"/>
			</g>
			<g>
				<path style="fill:#FE7DAD;" d="M15.65,223.998c1.623-2.848,0.63-6.472-2.218-8.096c-2.848-1.623-6.473-0.63-8.096,2.218
					c-1.623,2.848-0.63,6.473,2.218,8.096S14.027,226.846,15.65,223.998z"/>
			</g>
			<g>
				<path style="fill:#67DAC1;" d="M542.764,255.759c1.623-2.848,0.63-6.473-2.218-8.096c-2.848-1.623-6.473-0.63-8.096,2.218
					c-1.623,2.848-0.63,6.473,2.218,8.096C537.516,259.6,541.141,258.607,542.764,255.759z"/>
			</g>
			<g>
				<path style="fill:#232021;" d="M423.281,401.109c1.623-2.848,0.63-6.472-2.218-8.096c-2.848-1.623-6.473-0.63-8.096,2.218
					c-1.623,2.848-0.63,6.473,2.218,8.096S421.657,403.957,423.281,401.109z"/>
			</g>
			<g>
				<path style="fill:#00A9F8;" d="M544.709,371.645c1.623-2.848,0.63-6.473-2.218-8.096c-2.848-1.623-6.473-0.63-8.096,2.218
					c-1.623,2.848-0.63,6.473,2.218,8.096C539.461,375.486,543.085,374.493,544.709,371.645z"/>
			</g>
			<g>
				<path style="fill:#FFB32C;" d="M658.455,404.912c1.623-2.848,0.63-6.473-2.218-8.096c-2.848-1.623-6.473-0.63-8.096,2.218
					c-1.623,2.848-0.63,6.473,2.218,8.096C653.207,408.753,656.832,407.76,658.455,404.912z"/>
			</g>
			<g>
				<path style="fill:#FFB32C;" d="M661.362,192.088c1.623-2.848,0.63-6.473-2.218-8.096c-2.848-1.623-6.473-0.63-8.096,2.218
					c-1.623,2.848-0.63,6.473,2.218,8.096C656.115,195.929,659.739,194.936,661.362,192.088z"/>
			</g>
		</g>
	</g>
</g>
</svg>
